<svg xmlns="http://www.w3.org/2000/svg" width="800" height="800" viewBox="0 0 800 800">
  <defs>
    <linearGradient id="bg" x1="0" x2="1" y1="0" y2="1">
      <stop offset="0" stop-color="#fff6e8"/>
      <stop offset="1" stop-color="#f0c040"/>
    </linearGradient>
  </defs>
  <rect width="800" height="800" fill="url(#bg)"/>
  <g opacity="0.18">
    <path d="M140 560c60-200 220-360 420-360 60 0 110 10 170 40-40 220-220 420-460 420-60 0-94-10-130-100z" fill="#ffffff"/>
  </g>
  <g>
    <path d="M270 520c-40-90 40-210 150-230 110-20 190 70 170 160-18 78-120 130-230 110-40-8-72-18-90-40z" fill="#f1a8b4"/>
    <path d="M350 540c-20-60 28-140 96-154 66-14 116 44 104 98-12 54-78 92-146 78-22-4-42-10-54-22z" fill="#f05f7e" opacity="0.9"/>
    <circle cx="500" cy="470" r="18" fill="#0f7b6c" opacity="0.55"/>
    <circle cx="430" cy="520" r="12" fill="#0f7b6c" opacity="0.45"/>
  </g>
  <text x="40" y="760" font-family="Mukta, sans-serif" font-size="44" fill="rgba(26,10,0,0.55)">Petals</text>
</svg>
