<svg xmlns="http://www.w3.org/2000/svg" width="800" height="800" viewBox="0 0 800 800">
  <defs>
    <linearGradient id="bg" x1="0" x2="1" y1="0" y2="1">
      <stop offset="0" stop-color="#fff0f3"/>
      <stop offset="1" stop-color="#f0c040"/>
    </linearGradient>
  </defs>
  <rect width="800" height="800" fill="url(#bg)"/>
  <g opacity="0.18">
    <path d="M60 520c140-120 220-160 340-140s200 120 340 140c-120 180-280 240-340 240S180 700 60 520z" fill="#ffffff"/>
  </g>
  <g>
    <path d="M410 170c130 40 170 170 120 260-52 96-202 104-258 32-72-92-34-252 138-292z" fill="#b61b3d"/>
    <path d="M430 220c78 18 110 98 86 154-28 68-132 72-170 18-44-62-18-154 84-172z" fill="#d12b53"/>
    <path d="M452 280c40 10 58 52 46 82-14 36-70 38-90 10-24-32-10-82 44-92z" fill="#f05f7e"/>
    <path d="M360 520c40 20 88 20 130 0 10 62-26 122-64 140-40-18-76-78-66-140z" fill="#0f7b6c"/>
    <path d="M400 510c-10 72-14 130-6 200" stroke="#0b5d52" stroke-width="14" stroke-linecap="round" fill="none"/>
  </g>
  <text x="40" y="760" font-family="Mukta, sans-serif" font-size="44" fill="rgba(26,10,0,0.55)">Rose</text>
</svg>
