<svg xmlns="http://www.w3.org/2000/svg" width="800" height="800" viewBox="0 0 800 800">
  <defs>
    <linearGradient id="bg" x1="0" x2="1" y1="0" y2="1">
      <stop offset="0" stop-color="#fff7e6"/>
      <stop offset="1" stop-color="#f0c040"/>
    </linearGradient>
  </defs>
  <rect width="800" height="800" fill="url(#bg)"/>
  <g opacity="0.18">
    <circle cx="400" cy="400" r="300" fill="#ffffff"/>
    <circle cx="400" cy="400" r="240" fill="#000000"/>
    <circle cx="400" cy="400" r="190" fill="#ffffff"/>
  </g>
  <g>
    <circle cx="400" cy="400" r="110" fill="#3b2a16"/>
    <circle cx="400" cy="400" r="74" fill="#5a3a1e"/>
    <g fill="#f7d24a">
      <path d="M400 120c38 46 46 104 0 148-46-44-38-102 0-148z"/>
      <path d="M680 400c-46 38-104 46-148 0 44-46 102-38 148 0z"/>
      <path d="M400 680c-38-46-46-104 0-148 46 44 38 102 0 148z"/>
      <path d="M120 400c46-38 104-46 148 0-44 46-102 38-148 0z"/>
      <path d="M594 206c-58 12-103 49-106 112 60 5 98-34 112-106z"/>
      <path d="M594 594c-14-58-52-101-114-103-3 61 36 97 114 103z"/>
      <path d="M206 594c58-12 103-49 106-112-60-5-98 34-112 106z"/>
      <path d="M206 206c14 58 52 101 114 103 3-61-36-97-114-103z"/>
    </g>
    <circle cx="400" cy="400" r="28" fill="#f0c040"/>
  </g>
  <text x="40" y="760" font-family="Mukta, sans-serif" font-size="44" fill="rgba(26,10,0,0.55)">Sunflower</text>
</svg>
